<svg width="0" height="0" class="hidden">
  <symbol xmlns="http://www.w3.org/2000/svg" viewBox="0 0 33 32" id="fb">
    <path d="M1.785.647h28.46c.98 0 1.76.757 1.76 1.708V30c0 .932-.78 1.708-1.76 1.708h-8.16V19.672h4.16l.62-4.679h-4.78v-2.99c0-1.358.4-2.29 2.4-2.29h2.56V5.52c-.44-.059-1.96-.175-3.72-.175-3.7 0-6.22 2.174-6.22 6.193v3.455h-4.18v4.679h4.18v12.036H1.785c-.469 0-.918-.179-1.252-.499A1.704 1.704 0 01.005 30V2.355c0-.951.8-1.708 1.78-1.708z"></path>
  </symbol>
  <symbol xmlns="http://www.w3.org/2000/svg" viewBox="0 0 31 30" id="inst">
    <path d="M29.917 9.2a10.292 10.292 0 00-.699-3.585 7.44 7.44 0 00-1.731-2.579 7.71 7.71 0 00-2.657-1.68 11.304 11.304 0 00-3.643-.68c-1.604-.07-2.112-.09-6.182-.09s-4.592 0-6.183.09a11.303 11.303 0 00-3.642.68 7.705 7.705 0 00-2.657 1.68A7.436 7.436 0 00.792 5.615 10.33 10.33 0 00.093 9.15C.022 10.708 0 11.2 0 15.152c0 3.95 0 4.455.093 6.002.025 1.21.26 2.404.699 3.538a7.44 7.44 0 001.732 2.578 7.708 7.708 0 002.658 1.68c1.162.442 2.394.688 3.641.728 1.605.07 2.114.09 6.184.09s4.591 0 6.183-.09A11.277 11.277 0 0024.833 29a7.716 7.716 0 002.657-1.68 7.447 7.447 0 001.732-2.58c.438-1.132.673-2.326.698-3.537.072-1.557.093-2.05.093-6.002-.003-3.951-.003-4.453-.096-6zM14.995 22.623c-4.257 0-7.705-3.347-7.705-7.48 0-4.131 3.448-7.478 7.705-7.478 2.043 0 4.003.788 5.448 2.19a7.37 7.37 0 012.257 5.289 7.37 7.37 0 01-2.257 5.288 7.824 7.824 0 01-5.448 2.19zm8.012-13.49c-.995 0-1.797-.78-1.797-1.745 0-.229.046-.455.137-.667a1.74 1.74 0 01.389-.565 1.8 1.8 0 01.583-.378 1.843 1.843 0 011.957.378 1.705 1.705 0 01.526 1.232c0 .964-.804 1.744-1.795 1.744z"></path>
    <path d="M15.005 19.716c2.764 0 5.005-2.175 5.005-4.858S17.77 10 15.005 10C12.241 10 10 12.175 10 14.858s2.24 4.858 5.005 4.858z"></path>
  </symbol>
  <symbol xmlns="http://www.w3.org/2000/svg" viewBox="0 0 34 33" id="vk">
    <path d="M22.127 0H11.9C2.56 0 .338 2.157.338 11.207v9.926c0 9.065 2.205 11.223 11.545 11.223H22.11c9.338 0 11.562-2.14 11.562-11.207v-9.926C33.672 2.157 31.467 0 22.127 0zm5.121 23.086h-2.431c-.92 0-1.197-.723-2.847-2.325-1.44-1.347-2.048-1.516-2.413-1.516-.504 0-.642.135-.642.81v2.122c0 .574-.192.91-1.737.91a9.69 9.69 0 01-4.242-1.29 9.358 9.358 0 01-3.17-3.024 18.577 18.577 0 01-3.838-7.819c0-.354.139-.675.834-.675h2.43c.625 0 .85.27 1.095.893 1.18 3.372 3.193 6.303 4.01 6.303.313 0 .45-.134.45-.893v-3.471c-.104-1.584-.97-1.719-.97-2.291a.577.577 0 01.199-.393.611.611 0 01.424-.147h3.82c.522 0 .695.252.695.859v4.685c0 .506.225.674.382.674.313 0 .555-.168 1.128-.725a19.309 19.309 0 002.987-4.82c.076-.21.221-.388.412-.51a1.07 1.07 0 01.646-.163h2.432c.728 0 .883.354.728.859a29.254 29.254 0 01-3.263 5.443c-.262.389-.367.59 0 1.046.241.354 1.093 1.045 1.666 1.701.834.807 1.525 1.74 2.049 2.764.208.657-.14.995-.834.995v-.002z"></path>
  </symbol>
    <symbol fill="none" xmlns="http://www.w3.org/2000/svg" viewBox="0 0 182 19" id="snake">
    <path d="M1 3.5l9.393 9.393c5.858 5.858 15.356 5.858 21.214 0l7.286-7.286c5.858-5.858 15.356-5.858 21.214 0l7.286 7.286c5.858 5.858 15.356 5.858 21.214 0l7.286-7.286c5.858-5.858 15.356-5.858 21.214 0l7.286 7.286c5.858 5.858 15.356 5.858 21.214 0l7.286-7.286c5.858-5.858 15.356-5.858 21.214 0L180.5 12" stroke="#10133A" stroke-width="2" stroke-linecap="round" stroke-linejoin="round"></path>
  </symbol>
  <symbol fill="none" xmlns="http://www.w3.org/2000/svg" viewBox="0 0 36 68" id="next">
    <path d="M1 1l33 33L1 67" stroke="#10133A" stroke-width="2"></path>
  </symbol>
  <symbol fill="none" xmlns="http://www.w3.org/2000/svg" viewBox="0 0 36 68" id="prev">
    <path d="M35 1L2 34l33 33" stroke="#10133A" stroke-width="2"></path>
  </symbol>
</svg>